<svg id="visual" viewBox="0 0 900 600" width="900" height="600" xmlns="http://www.w3.org/2000/svg" xmlns:xlink="http://www.w3.org/1999/xlink" version="1.1"><g transform="translate(475.5064592694324 332.29739057497693)"><path d="M109.8 -162.9C146.1 -124.7 181.9 -97.7 195.1 -62.2C208.3 -26.7 198.8 17.4 181.3 55.1C163.8 92.8 138.3 124.1 106.8 145.6C75.2 167.2 37.6 179.1 -6.4 187.9C-50.4 196.6 -100.7 202.3 -146.8 185.4C-193 168.6 -234.9 129.3 -247.7 82.2C-260.6 35.2 -244.4 -19.5 -223.1 -68.6C-201.7 -117.7 -175.2 -161.2 -137.2 -198.8C-99.1 -236.5 -49.6 -268.2 -6.4 -259.4C36.7 -250.6 73.5 -201.1 109.8 -162.9" fill="#FFBF00"></path></g></svg>