<svg id="visual" viewBox="0 0 900 600" width="900" height="600" xmlns="http://www.w3.org/2000/svg" xmlns:xlink="http://www.w3.org/1999/xlink" version="1.1"><path d="M0 446L47 446L47 347L95 347L95 350L142 350L142 392L189 392L189 529L237 529L237 302L284 302L284 466L332 466L332 432L379 432L379 321L426 321L426 446L474 446L474 416L521 416L521 526L568 526L568 463L616 463L616 342L663 342L663 396L711 396L711 357L758 357L758 252L805 252L805 282L853 282L853 386L900 386L900 361L900 601L900 601L853 601L853 601L805 601L805 601L758 601L758 601L711 601L711 601L663 601L663 601L616 601L616 601L568 601L568 601L521 601L521 601L474 601L474 601L426 601L426 601L379 601L379 601L332 601L332 601L284 601L284 601L237 601L237 601L189 601L189 601L142 601L142 601L95 601L95 601L47 601L47 601L0 601Z" fill="#ffbf00"></path><path d="M0 291L47 291L47 516L95 516L95 529L142 529L142 550L189 550L189 380L237 380L237 490L284 490L284 488L332 488L332 410L379 410L379 376L426 376L426 344L474 344L474 431L521 431L521 461L568 461L568 481L616 481L616 330L663 330L663 420L711 420L711 520L758 520L758 544L805 544L805 524L853 524L853 307L900 307L900 318L900 601L900 601L853 601L853 601L805 601L805 601L758 601L758 601L711 601L711 601L663 601L663 601L616 601L616 601L568 601L568 601L521 601L521 601L474 601L474 601L426 601L426 601L379 601L379 601L332 601L332 601L284 601L284 601L237 601L237 601L189 601L189 601L142 601L142 601L95 601L95 601L47 601L47 601L0 601Z" fill="#d7a21a"></path><path d="M0 555L47 555L47 511L95 511L95 427L142 427L142 427L189 427L189 367L237 367L237 393L284 393L284 426L332 426L332 536L379 536L379 335L426 335L426 547L474 547L474 392L521 392L521 376L568 376L568 386L616 386L616 375L663 375L663 421L711 421L711 459L758 459L758 454L805 454L805 458L853 458L853 416L900 416L900 552L900 601L900 601L853 601L853 601L805 601L805 601L758 601L758 601L711 601L711 601L663 601L663 601L616 601L616 601L568 601L568 601L521 601L521 601L474 601L474 601L426 601L426 601L379 601L379 601L332 601L332 601L284 601L284 601L237 601L237 601L189 601L189 601L142 601L142 601L95 601L95 601L47 601L47 601L0 601Z" fill="#b08523"></path><path d="M0 417L47 417L47 557L95 557L95 510L142 510L142 544L189 544L189 417L237 417L237 565L284 565L284 517L332 517L332 494L379 494L379 566L426 566L426 416L474 416L474 483L521 483L521 561L568 561L568 478L616 478L616 403L663 403L663 421L711 421L711 512L758 512L758 548L805 548L805 430L853 430L853 419L900 419L900 414L900 601L900 601L853 601L853 601L805 601L805 601L758 601L758 601L711 601L711 601L663 601L663 601L616 601L616 601L568 601L568 601L521 601L521 601L474 601L474 601L426 601L426 601L379 601L379 601L332 601L332 601L284 601L284 601L237 601L237 601L189 601L189 601L142 601L142 601L95 601L95 601L47 601L47 601L0 601Z" fill="#8a6a26"></path><path d="M0 527L47 527L47 502L95 502L95 503L142 503L142 523L189 523L189 526L237 526L237 579L284 579L284 429L332 429L332 431L379 431L379 479L426 479L426 526L474 526L474 504L521 504L521 550L568 550L568 485L616 485L616 527L663 527L663 523L711 523L711 441L758 441L758 557L805 557L805 515L853 515L853 431L900 431L900 447L900 601L900 601L853 601L853 601L805 601L805 601L758 601L758 601L711 601L711 601L663 601L663 601L616 601L616 601L568 601L568 601L521 601L521 601L474 601L474 601L426 601L426 601L379 601L379 601L332 601L332 601L284 601L284 601L237 601L237 601L189 601L189 601L142 601L142 601L95 601L95 601L47 601L47 601L0 601Z" fill="#665026"></path><path d="M0 553L47 553L47 495L95 495L95 489L142 489L142 484L189 484L189 532L237 532L237 559L284 559L284 503L332 503L332 574L379 574L379 557L426 557L426 568L474 568L474 586L521 586L521 578L568 578L568 466L616 466L616 557L663 557L663 493L711 493L711 528L758 528L758 531L805 531L805 468L853 468L853 537L900 537L900 546L900 601L900 601L853 601L853 601L805 601L805 601L758 601L758 601L711 601L711 601L663 601L663 601L616 601L616 601L568 601L568 601L521 601L521 601L474 601L474 601L426 601L426 601L379 601L379 601L332 601L332 601L284 601L284 601L237 601L237 601L189 601L189 601L142 601L142 601L95 601L95 601L47 601L47 601L0 601Z" fill="#433825"></path><path d="M0 550L47 550L47 524L95 524L95 587L142 587L142 577L189 577L189 580L237 580L237 523L284 523L284 513L332 513L332 576L379 576L379 567L426 567L426 589L474 589L474 513L521 513L521 540L568 540L568 515L616 515L616 530L663 530L663 591L711 591L711 551L758 551L758 542L805 542L805 530L853 530L853 555L900 555L900 548L900 601L900 601L853 601L853 601L805 601L805 601L758 601L758 601L711 601L711 601L663 601L663 601L616 601L616 601L568 601L568 601L521 601L521 601L474 601L474 601L426 601L426 601L379 601L379 601L332 601L332 601L284 601L284 601L237 601L237 601L189 601L189 601L142 601L142 601L95 601L95 601L47 601L47 601L0 601Z" fill="#212121"></path></svg>