<svg id="visual" viewBox="0 0 900 600" width="900" height="600" xmlns="http://www.w3.org/2000/svg" xmlns:xlink="http://www.w3.org/1999/xlink" version="1.1"><path d="M0 367L129 424L257 404L386 413L514 404L643 347L771 392L900 387L900 601L771 601L643 601L514 601L386 601L257 601L129 601L0 601Z" fill="#fff2cc"></path><path d="M0 425L129 414L257 366L386 368L514 385L643 439L771 394L900 392L900 601L771 601L643 601L514 601L386 601L257 601L129 601L0 601Z" fill="#ffedbc"></path><path d="M0 427L129 458L257 433L386 445L514 431L643 411L771 442L900 430L900 601L771 601L643 601L514 601L386 601L257 601L129 601L0 601Z" fill="#ffe9ab"></path><path d="M0 474L129 413L257 431L386 423L514 472L643 431L771 432L900 477L900 601L771 601L643 601L514 601L386 601L257 601L129 601L0 601Z" fill="#ffe49b"></path><path d="M0 488L129 478L257 469L386 437L514 448L643 458L771 481L900 491L900 601L771 601L643 601L514 601L386 601L257 601L129 601L0 601Z" fill="#ffdf8a"></path><path d="M0 462L129 507L257 464L386 455L514 483L643 501L771 481L900 501L900 601L771 601L643 601L514 601L386 601L257 601L129 601L0 601Z" fill="#ffda79"></path><path d="M0 485L129 485L257 523L386 510L514 516L643 523L771 509L900 505L900 601L771 601L643 601L514 601L386 601L257 601L129 601L0 601Z" fill="#ffd568"></path><path d="M0 538L129 523L257 497L386 519L514 506L643 518L771 527L900 504L900 601L771 601L643 601L514 601L386 601L257 601L129 601L0 601Z" fill="#ffd056"></path><path d="M0 555L129 527L257 522L386 536L514 541L643 542L771 525L900 519L900 601L771 601L643 601L514 601L386 601L257 601L129 601L0 601Z" fill="#ffca43"></path><path d="M0 544L129 566L257 540L386 568L514 544L643 562L771 545L900 546L900 601L771 601L643 601L514 601L386 601L257 601L129 601L0 601Z" fill="#ffc52c"></path><path d="M0 570L129 584L257 580L386 576L514 567L643 562L771 562L900 573L900 601L771 601L643 601L514 601L386 601L257 601L129 601L0 601Z" fill="#ffbf00"></path></svg>